<svg width="11" height="14" viewBox="0 0 11 14" fill="none" xmlns="http://www.w3.org/2000/svg">
<path fill-rule="evenodd" clip-rule="evenodd" d="M9.94724 1.65141L2.44724 6.65141L9.94724 11.6514C10.0457 11.7171 10.1303 11.8015 10.1962 11.8998C10.2621 11.9982 10.3079 12.1086 10.3311 12.2246C10.3543 12.3407 10.3545 12.4602 10.3315 12.5763C10.3085 12.6925 10.2629 12.8029 10.1972 12.9014C10.0646 13.1003 9.85844 13.2384 9.62402 13.2853C9.50795 13.3085 9.38844 13.3086 9.27232 13.2857C9.1562 13.2627 9.04574 13.2171 8.94724 13.1514L0.445244 7.48341C0.308286 7.39208 0.195992 7.26836 0.118324 7.12323C0.040657 6.97809 2.09808e-05 6.81602 2.09808e-05 6.65141C2.09808e-05 6.48679 0.040657 6.32473 0.118324 6.17959C0.195992 6.03445 0.308286 5.91073 0.445244 5.81941L8.94724 0.151407C9.04574 0.0857468 9.1562 0.0401287 9.27232 0.0171566C9.38844 -0.00581551 9.50795 -0.00569153 9.62402 0.0175228C9.7401 0.0407372 9.85046 0.0865879 9.94881 0.152454C10.0472 0.218321 10.1316 0.302916 10.1972 0.401407C10.2629 0.499899 10.3085 0.610359 10.3315 0.72648C10.3545 0.842602 10.3543 0.962111 10.3311 1.07818C10.3079 1.19426 10.2621 1.30462 10.1962 1.40298C10.1303 1.50133 10.0457 1.58575 9.94724 1.65141Z" fill="black"/>
</svg>
